<svg xmlns="http://www.w3.org/2000/svg" xmlns:xlink="http://www.w3.org/1999/xlink" width="48" height="48" version="1.1" viewBox="0 0 48 48"><title>android-phone</title><desc>Created with Sketch.</desc><g id="Page-1" fill="none" fill-rule="evenodd" stroke="none" stroke-width="1"><g id="android-phone"><rect id="Bounding-box" width="48" height="48" x="0" y="0" fill="#FFF" fill-opacity="0"/><path id="Rectangle-5" fill="#777088" d="M13,8.00709688 L13,39.9929031 C13,43.3091764 15.6860928,46 18.9952753,46 L29.0047247,46 C32.3100593,46 35,43.3080088 35,39.9929031 L35,8.00709688 C35,4.69082362 32.3139072,2 29.0047247,2 L18.9952753,2 C15.6899407,2 13,4.69199124 13,8.00709688 Z M11,8.00709688 C11,3.58489938 14.5878911,0 18.9952753,0 L29.0047247,0 C33.4203933,0 37,3.58817117 37,8.00709688 L37,39.9929031 C37,44.4151006 33.4121089,48 29.0047247,48 L18.9952753,48 C14.5796067,48 11,44.4118288 11,39.9929031 L11,8.00709688 Z"/><rect id="Rectangle-8" width="20" height="34" x="14" y="7" fill="#777088"/><path id="Combined-Shape" fill="#FFF" d="M25.0867553,27.0681395 L22.9132157,27.0681395 L22.9132157,29.3331166 C22.9132157,29.6933255 22.708733,29.7499911 22.4565933,29.7499911 C22.2043895,29.7499911 21.999971,29.6933255 21.999971,29.3331166 L21.999971,27.0681395 L21.359375,27.0681395 C21.1610093,27.0681395 21,26.9496421 21,26.8034886 L21,23.3327904 C21,23.186637 21.1610093,23.0681395 21.359375,23.0681395 L26.6408046,23.0681395 C26.8391703,23.0681395 27,23.186637 27,23.3327904 L27,26.8034886 C27,26.9496421 26.8391703,27.0681395 26.6408046,27.0681395 L26,27.0681395 L26,29.3331304 C26,29.6933393 25.7955173,29.7500049 25.5433776,29.7500049 C25.2911738,29.7500049 25.0867553,29.6933393 25.0867553,29.3331304 L25.0867553,27.0681395 Z M19.9132447,26.5570622 C19.9132447,26.9397837 19.7087764,27.2499905 19.4565903,27.2499905 C19.2044042,27.2499905 19,26.9397837 19,26.5570622 L19,23.4430214 C19,23.0602999 19.2044042,22.7499957 19.4565903,22.7499957 C19.7087764,22.7499957 19.9132447,23.0602999 19.9132447,23.4430214 L19.9132447,26.5570622 Z M29,26.5570622 C29,26.9397837 28.7955317,27.2499905 28.5433456,27.2499905 C28.2911594,27.2499905 28.0867553,26.9397837 28.0867553,26.5570622 L28.0867553,23.4430214 C28.0867553,23.0602999 28.2911594,22.7499957 28.5433456,22.7499957 C28.7955317,22.7499957 29,23.0602999 29,23.4430214 L29,26.5570622 Z M21,22 C21,22 21.0667882,18.9894015 23.9999548,19.0000281 C26.9055566,19.0105483 27,22 27,22 L21,22 Z M20.999971,18 L21.999971,18 L21.999971,19 L20.999971,19 L20.999971,18 Z M25.999971,18 L26.999971,18 L26.999971,19 L25.999971,19 L25.999971,18 Z"/><rect id="Rectangle-9" width="6" height="1" x="21" y="4" fill="#777088"/><rect id="Rectangle-9-Copy" width="6" height="1" x="21" y="43" fill="#777088"/></g></g></svg>